<?xml version="1.0" standalone="no"?>
<!DOCTYPE svg PUBLIC "-//W3C//DTD SVG 20010904//EN"
 "http://www.w3.org/TR/2001/REC-SVG-20010904/DTD/svg10.dtd">
<svg version="1.0" xmlns="http://www.w3.org/2000/svg"
 width="1280.000000pt" height="904.000000pt" viewBox="0 0 1280.000000 904.000000"
 preserveAspectRatio="xMidYMid meet">
<metadata>
Created by potrace 1.15, written by Peter Selinger 2001-2017
</metadata>
<g transform="translate(0.000000,904.000000) scale(0.100000,-0.100000)"
fill="#000000" stroke="none">
<path d="M10622 8749 c-66 -33 -104 -98 -117 -201 -6 -48 -5 -58 8 -58 8 0 20
-14 27 -30 7 -17 26 -38 42 -46 18 -9 63 -67 126 -162 53 -81 100 -149 103
-152 4 -3 7 -21 7 -40 3 -92 1 -148 -4 -182 -6 -41 -5 -42 59 -53 26 -4 37
-11 37 -23 -1 -12 -143 -93 -497 -282 -273 -146 -530 -284 -571 -307 -51 -29
-82 -41 -97 -37 -30 7 -240 -100 -402 -206 l-123 -79 -25 23 c-23 22 -24 24
-7 28 25 7 33 42 15 67 -12 17 -25 21 -77 21 -79 0 -101 -20 -110 -102 -10
-88 -5 -85 -109 -80 -83 4 -94 6 -111 28 -24 32 -69 55 -125 63 -57 8 -58 13
-60 205 -1 137 -1 140 -28 168 -33 35 -56 35 -81 3 -34 -43 -43 -109 -29 -205
11 -76 15 -85 35 -88 19 -3 22 -9 22 -50 0 -43 -3 -48 -33 -62 -54 -25 -62
-90 -17 -138 27 -29 18 -72 -16 -72 -13 0 -128 11 -256 25 -198 22 -234 28
-250 45 -24 26 -39 28 -193 33 -104 3 -139 8 -175 25 -65 29 -250 54 -445 59
-150 4 -179 7 -245 30 -41 14 -83 33 -92 41 -22 19 -38 7 -67 -49 -33 -63 -42
-119 -30 -186 10 -58 67 -196 78 -190 59 33 90 39 171 34 47 -3 105 -12 129
-21 28 -10 76 -16 135 -16 147 0 257 -16 315 -46 l51 -27 71 17 c80 20 148 15
217 -15 l43 -18 -7 59 -7 60 56 0 56 0 -14 -39 c-24 -68 -55 -229 -55 -284 l0
-53 -75 -37 c-68 -33 -75 -35 -75 -18 0 29 -36 36 -66 12 -14 -11 -51 -25 -82
-31 -31 -6 -103 -29 -158 -50 -56 -22 -146 -51 -200 -65 -187 -48 -347 -144
-386 -231 -21 -49 -17 -78 14 -95 11 -6 21 -9 22 -7 1 2 15 24 29 50 43 75
140 131 281 163 34 7 106 30 161 49 225 80 317 84 489 24 106 -36 132 -42 211
-42 102 -1 145 15 173 65 l17 29 118 0 c115 0 132 -5 102 -30 -18 -15 -20 -61
-3 -78 16 -16 -4 -16 -21 1 -11 10 -12 7 -7 -18 13 -53 47 -97 91 -116 43 -19
43 -19 50 -86 4 -36 9 -74 12 -82 4 -12 3 -13 -4 -3 -8 10 -20 8 -58 -12 -26
-15 -54 -26 -62 -26 -7 0 -36 -11 -63 -25 -221 -112 -688 -581 -1253 -1260
-130 -155 -166 -204 -161 -220 11 -38 55 -96 87 -115 18 -11 28 -20 22 -20
-37 0 -100 73 -126 143 -7 20 -16 37 -20 37 -11 0 -19 -28 -13 -45 8 -20 -49
-95 -138 -181 -75 -73 -158 -134 -238 -174 -41 -21 -43 -21 -28 -3 33 36 34
79 2 120 -15 21 -20 32 -10 24 15 -13 19 -13 27 0 5 8 9 24 9 35 0 12 7 24 15
28 8 3 15 18 15 34 0 15 5 33 11 39 8 8 8 17 0 31 -7 13 -8 30 -3 44 5 13 5
62 -1 112 -10 87 -10 88 -43 102 -18 8 -57 14 -86 14 -43 0 -56 -4 -67 -21
-10 -17 -10 -23 -1 -29 15 -9 4 -30 -16 -30 -17 0 -18 -22 -1 -39 10 -10 8
-15 -7 -26 -14 -11 -17 -22 -13 -45 5 -22 3 -30 -8 -30 -17 0 -19 -27 -5 -65
8 -20 7 -27 -6 -32 -11 -4 -14 -14 -10 -34 3 -16 2 -29 -2 -29 -4 0 -9 -41
-10 -91 -1 -59 2 -88 8 -84 6 4 -9 -24 -33 -62 l-45 -68 -63 -11 c-152 -28
-492 -12 -653 29 l-49 13 -82 217 c-44 119 -83 218 -86 221 -3 3 -39 -8 -80
-24 -88 -35 -119 -38 -119 -11 0 14 10 21 38 26 54 10 131 45 142 65 6 12 -19
86 -94 271 -56 140 -107 278 -114 307 -6 29 -20 72 -30 95 -11 23 -43 113 -73
200 -52 153 -55 158 -79 153 l-25 -5 23 11 c26 13 26 12 -9 131 -17 58 -23 68
-41 65 -18 -3 -26 11 -60 102 -22 58 -41 106 -42 107 -1 2 -16 -2 -32 -9 -41
-15 -78 -4 -92 27 -23 49 -16 62 51 93 251 119 673 293 875 363 168 57 230 89
278 141 25 28 34 47 34 74 0 51 -12 67 -82 111 -76 48 -116 64 -239 97 -193
52 -276 59 -674 62 l-370 3 -75 29 c-184 72 -412 122 -560 122 -170 0 -239
-38 -300 -163 -106 -220 -108 -446 -5 -617 40 -66 139 -164 215 -212 94 -60
257 -138 323 -153 114 -27 261 -13 376 37 24 10 45 17 46 16 2 -3 94 -250 103
-278 3 -8 2 -12 -2 -8 -4 3 -22 2 -40 -3 -20 -6 -129 -4 -292 5 -352 20 -370
27 -619 242 l-132 114 7 42 c20 113 21 155 5 171 -25 26 -60 5 -155 -88 l-85
-84 -158 20 c-148 19 -160 19 -177 4 -18 -16 -18 -16 -13 4 4 17 1 21 -18 21
-13 0 -69 5 -124 10 -55 6 -197 19 -315 30 -118 11 -386 35 -595 55 -209 19
-399 36 -422 37 -23 1 -40 4 -38 8 6 9 -98 20 -184 20 -88 -1 -113 -13 -321
-167 -194 -142 -204 -155 -180 -226 l15 -41 108 -16 c86 -13 107 -13 107 -3 0
20 40 16 41 -4 0 -10 12 -51 27 -90 l28 -73 67 48 c66 48 66 49 43 60 -24 11
-55 52 -39 52 4 0 159 -14 343 -30 184 -17 430 -39 545 -49 l210 -19 -120 -1
c-112 -1 -355 -23 -411 -37 -22 -6 -24 -4 -24 35 0 37 -2 41 -25 41 -23 0 -25
-4 -26 -47 0 -27 -3 -43 -5 -37 -5 12 -265 -29 -383 -60 -127 -34 -298 -111
-426 -193 -165 -106 -387 -314 -490 -457 l-47 -67 -113 61 c-120 64 -172 75
-231 48 l-26 -12 7 -141 c6 -131 9 -144 37 -195 47 -86 53 -90 109 -83 l49 6
-26 -69 c-57 -152 -104 -384 -118 -581 l-5 -73 35 0 34 0 0 54 c0 60 4 65 71
90 l46 16 13 87 c17 114 31 157 22 68 -10 -105 -7 -328 7 -430 16 -119 57
-302 88 -395 39 -117 144 -323 233 -460 394 -602 983 -1004 1723 -1174 649
-149 1220 -123 1702 79 300 125 539 307 678 515 43 64 56 77 69 69 9 -5 31 -9
50 -8 18 0 101 -2 183 -6 180 -7 158 -7 278 -3 53 2 97 1 97 -2 0 -13 -364
-420 -375 -420 -7 0 -18 7 -25 15 -7 8 -27 17 -45 21 -27 5 -42 0 -80 -26 -38
-26 -46 -36 -41 -55 4 -14 -5 -42 -24 -77 -63 -116 -77 -270 -33 -368 28 -63
114 -154 175 -184 92 -46 179 -33 278 40 51 37 67 57 90 107 40 88 52 158 48
272 l-3 100 -30 3 c-16 2 -37 10 -46 18 -9 9 -29 19 -45 23 -15 4 -35 20 -44
35 -9 17 -30 33 -54 41 -21 8 -43 18 -48 23 -6 6 39 58 117 138 70 71 124 125
122 119 -3 -5 -37 -64 -77 -130 -40 -66 -75 -124 -78 -130 -16 -31 44 45 191
241 91 122 173 224 183 228 14 5 15 4 5 -8 -17 -20 20 -40 63 -33 17 2 39 0
49 -5 10 -5 24 -5 36 2 15 8 29 6 55 -6 21 -11 41 -14 53 -9 10 4 36 9 58 11
56 3 116 14 140 23 64 26 84 35 117 52 20 10 43 19 50 19 15 0 138 111 138
124 0 4 11 21 25 38 14 16 25 40 25 53 0 13 5 27 11 31 6 3 9 17 6 30 l-4 24
120 0 120 0 -7 84 c-3 46 -8 91 -11 99 -5 11 11 15 82 20 92 6 196 33 273 72
145 72 273 142 327 181 84 60 141 127 295 347 97 138 140 192 160 199 20 7 28
17 28 34 0 13 -4 24 -10 24 -5 0 -10 -7 -10 -15 0 -8 -9 -15 -20 -15 -23 0
-27 15 -6 27 7 4 53 69 102 143 170 259 461 595 705 816 145 130 152 135 91
55 -88 -116 -155 -301 -172 -476 -13 -138 4 -331 40 -466 l11 -39 49 38 49 37
2 130 c1 72 4 110 6 85 9 -133 28 -274 49 -368 13 -59 24 -109 23 -112 0 -3
-9 18 -19 45 -39 105 -18 17 30 -127 308 -922 873 -1698 1670 -2293 350 -261
719 -442 1052 -517 89 -20 128 -23 293 -22 211 2 289 16 401 72 419 211 522
747 298 1546 -31 112 -89 247 -204 476 -248 497 -538 917 -843 1224 -113 113
-293 266 -314 266 -33 0 -3 24 135 105 81 49 156 94 168 101 12 7 114 87 228
178 182 145 222 173 324 220 l116 55 63 181 c34 100 76 200 91 223 43 62 56
110 42 151 -9 29 -6 54 26 178 21 80 44 147 52 153 47 31 82 70 97 108 10 23
34 143 54 266 l37 223 44 15 c59 20 115 59 129 89 6 14 11 60 11 102 1 99 16
214 36 275 13 39 25 55 63 78 51 33 59 47 60 102 2 78 -61 153 -161 190 -24 9
-275 80 -558 157 -283 78 -542 152 -575 165 -79 31 -156 39 -233 25 -38 -7
-251 -88 -540 -206 -699 -287 -644 -266 -628 -243 20 30 83 81 156 129 59 38
740 380 1051 528 136 64 206 118 240 184 21 41 25 78 9 78 -6 0 5 16 25 35 63
63 58 84 -47 222 -26 34 -45 68 -42 76 6 15 32 30 79 45 25 8 30 14 28 38 -3
40 -29 57 -77 51 -30 -4 -49 -16 -84 -54 l-46 -48 -7 55 c-6 46 -13 60 -47 92
-50 47 -121 68 -227 68 l-81 0 -18 55 c-22 70 -81 158 -136 201 -40 32 -44 38
-44 83 -2 101 -109 152 -214 100z m654 -824 c-11 -8 -25 -15 -30 -15 -6 1 0 7
14 15 32 19 40 18 16 0z m21 -80 c-2 -35 -1 -36 67 -65 74 -32 116 -64 116
-89 0 -56 -105 -137 -305 -233 -775 -376 -1088 -560 -1190 -700 -14 -18 -75
-52 -194 -107 -96 -45 -175 -81 -175 -81 -1 0 -1 15 -1 33 0 28 -4 33 -32 42
-32 9 -33 11 -33 62 l0 53 -40 0 c-44 0 -49 -6 -23 -25 26 -19 19 -80 -20
-174 -33 -81 -36 -84 -96 -118 -34 -19 -64 -33 -66 -31 -8 8 -35 207 -30 220
3 7 30 31 60 52 30 22 52 42 50 44 -3 3 -10 0 -17 -5 -27 -21 -272 -144 -258
-130 25 26 253 141 279 142 13 0 26 6 29 13 3 9 -15 12 -65 14 -54 1 -40 3 66
12 125 10 134 13 155 37 31 38 53 42 97 17 42 -23 47 -33 24 -42 -8 -3 -15
-12 -15 -20 0 -17 56 -66 76 -66 22 0 51 56 64 127 11 57 11 66 -5 83 -16 17
-16 19 4 30 12 6 21 19 21 29 0 13 30 32 113 71 413 196 833 409 917 465 96
65 192 152 216 196 7 13 18 24 26 24 7 0 24 17 37 38 24 36 26 37 71 31 l47
-6 13 46 c15 55 20 58 17 11z m-1450 -837 c-3 -7 -5 -2 -5 12 0 14 2 19 5 13
2 -7 2 -19 0 -25z m-1262 -68 c-3 -5 -14 -10 -23 -10 -15 0 -15 2 -2 10 20 13
33 13 25 0z m1022 -62 c-3 -7 -5 -2 -5 12 0 14 2 19 5 13 2 -7 2 -19 0 -25z
m-440 -34 c-3 -3 -12 -4 -19 -1 -8 3 -5 6 6 6 11 1 17 -2 13 -5z m22 -70 c1
-8 -50 -13 -156 -18 -87 -3 -177 -9 -201 -12 -33 -5 -41 -3 -37 7 4 10 29 15
83 16 42 1 127 5 188 9 l111 6 -3 26 -4 27 9 -25 c5 -14 9 -30 10 -36z m-389
17 c0 -5 -7 -12 -16 -15 -14 -5 -15 -4 -4 9 14 17 20 19 20 6z m-850 -55 c0
-2 -8 -10 -17 -17 -16 -13 -17 -12 -4 4 13 16 21 21 21 13z m805 -36 c-3 -5
-12 -10 -18 -10 -7 0 -6 4 3 10 19 12 23 12 15 0z m-226 -36 c14 -12 -19 -1
-35 12 -18 14 -18 14 6 3 14 -6 27 -13 29 -15z m1007 -102 c-14 -27 -56 -71
-56 -58 0 12 53 86 62 86 4 0 2 -12 -6 -28z m-437 -123 c20 -102 22 -123 10
-130 -8 -5 -115 -61 -239 -124 -124 -63 -238 -123 -255 -134 -26 -18 -46 -21
-138 -21 -86 0 -109 3 -113 15 -4 8 -13 15 -21 15 -8 0 -27 7 -43 15 -39 20
-38 32 9 225 l38 155 64 -3 c41 -2 68 -9 75 -18 16 -20 31 -17 37 6 7 29 57
28 57 -1 0 -17 4 -19 23 -13 12 4 25 11 29 17 3 6 32 9 65 8 115 -5 262 32
335 84 18 13 35 24 39 24 3 1 16 -53 28 -120z m-7629 -594 c0 -2 -10 -9 -22
-15 -22 -11 -22 -10 -4 4 21 17 26 19 26 11z m131 -21 c40 -5 44 -9 44 -33 0
-22 -14 -39 -62 -79 -34 -29 -65 -52 -70 -52 -4 0 -2 5 5 12 7 7 12 42 12 85
0 80 -3 77 71 67z m-223 -45 c-2 -4 -68 -60 -148 -124 -80 -65 -145 -123 -145
-129 0 -6 14 -14 30 -17 27 -6 26 -7 -12 -8 -33 -1 -43 -5 -44 -18 -1 -10 -4
-4 -8 12 -5 27 -11 31 -51 35 l-45 5 174 128 c159 116 178 127 213 125 21 -1
37 -5 36 -9z m997 -50 c336 -34 612 -64 615 -66 2 -2 -47 -55 -110 -118 -104
-104 -114 -117 -102 -135 6 -11 12 -29 12 -40 0 -16 7 -20 34 -20 31 0 35 3
43 38 7 31 13 37 33 35 14 -1 86 -7 160 -13 74 -6 149 -13 167 -16 25 -4 34 0
43 17 7 11 10 22 8 24 -2 2 -80 11 -173 20 -94 8 -182 18 -197 21 l-27 5 38
35 c22 19 49 34 62 34 13 0 89 -11 169 -24 80 -13 148 -22 151 -20 4 2 -4 -40
-18 -94 l-25 -98 -111 3 c-62 3 -427 35 -812 73 -385 38 -772 74 -860 81 -175
13 -242 27 -135 29 56 0 71 5 104 30 21 16 42 27 46 25 5 -3 130 -14 279 -25
149 -11 394 -29 544 -40 470 -35 452 -35 477 -17 l22 16 -33 5 c-19 3 -65 7
-104 10 -38 3 -203 17 -365 31 -162 13 -378 32 -480 40 -102 8 -208 18 -237
21 l-51 6 76 69 c42 38 85 69 94 69 13 0 18 8 18 25 0 17 6 25 18 25 9 0 292
-27 627 -61z m850 -95 c61 -9 111 -18 113 -19 1 -1 -3 -14 -9 -29 -10 -22 -17
-25 -43 -21 -17 3 -69 10 -116 15 -47 6 -100 13 -118 17 l-33 5 33 29 c18 15
40 26 48 24 8 -2 65 -11 125 -21z m323 6 c16 -1 16 -2 0 -13 -23 -18 -10 -34
53 -63 60 -28 160 -101 262 -192 43 -38 88 -67 125 -81 117 -43 306 -71 495
-71 86 0 107 -3 107 -14 0 -11 9 -13 34 -9 63 10 103 -35 72 -82 -21 -32 -21
-32 14 -40 24 -5 32 -16 50 -63 12 -31 26 -62 31 -68 7 -8 -8 -15 -49 -23 -32
-6 -158 -40 -281 -75 -183 -53 -222 -61 -220 -47 3 28 -1 32 -20 22 -16 -9
-20 -6 -25 15 -8 30 -49 49 -77 34 -24 -14 -24 -41 1 -89 19 -38 19 -39 0 -56
-18 -16 -22 -14 -92 33 -225 151 -610 339 -825 403 -36 10 -43 16 -43 38 0 44
41 55 114 32 46 -15 127 -24 326 -36 322 -19 316 -18 371 -43 36 -17 80 -23
246 -31 273 -15 353 -14 353 2 -1 33 -17 35 -280 47 -145 6 -269 15 -275 20
-28 23 -146 40 -383 55 -247 15 -305 24 -319 49 -3 6 -2 8 2 3 14 -12 44 23
51 59 5 30 10 34 36 34 47 0 115 20 137 41 46 43 8 113 -68 125 -23 4 -41 10
-41 15 0 16 75 79 88 74 8 -3 21 -5 30 -5z m-47 -149 l23 -18 -27 -18 c-19
-12 -37 -15 -62 -11 -41 8 -50 19 -35 46 14 26 69 27 101 1z m5352 -184 c31
-96 37 -126 37 -200 0 -124 31 -173 136 -213 45 -17 46 -18 40 -53 -3 -20 -6
-44 -6 -53 0 -12 -8 -18 -22 -18 -12 0 -40 -11 -62 -24 -34 -20 -44 -22 -58
-12 -16 12 -15 15 10 38 15 14 46 38 69 53 l42 27 -57 46 c-31 25 -60 51 -64
57 -30 46 -29 46 -93 19 -33 -14 -68 -27 -77 -29 -9 -2 -25 -11 -35 -20 -10
-9 -55 -43 -99 -75 -147 -107 -361 -321 -560 -558 -217 -260 -499 -652 -569
-792 -93 -185 -255 -378 -425 -506 -132 -100 -375 -213 -511 -238 -35 -6 -37
-5 -72 51 -36 59 -129 158 -182 194 -43 29 -154 84 -198 99 -21 6 -37 16 -35
22 2 5 44 56 93 112 l90 103 91 16 c325 58 485 143 751 400 67 64 126 117 131
117 6 0 13 10 16 23 3 12 32 55 65 95 68 86 124 162 118 162 -3 0 -24 -24 -49
-54 -72 -87 -158 -180 -158 -170 0 16 225 279 653 764 230 260 280 309 439
430 112 85 310 210 333 210 5 0 16 -9 23 -20 12 -20 13 -20 36 -3 22 16 23 20
9 35 -14 16 -11 19 43 46 33 16 61 30 64 31 3 0 22 -50 43 -112z m-5983 -17
c129 -11 241 -23 249 -25 11 -4 9 -9 -7 -21 -12 -8 -22 -22 -22 -30 0 -18 13
-19 -126 17 -65 18 -177 42 -249 55 -163 28 -139 29 155 4z m-1012 -165 c0
-39 -1 -39 -8 10 -4 28 -11 59 -14 70 -4 11 0 7 8 -10 8 -16 15 -48 14 -70z
m1370 -120 c140 -48 271 -106 363 -161 44 -25 79 -47 79 -49 0 -1 -66 31 -147
72 -82 40 -209 96 -283 123 -74 27 -130 49 -123 50 6 0 56 -16 111 -35z m-985
-2 c-13 -2 -35 -2 -50 0 -16 2 -5 4 22 4 28 0 40 -2 28 -4z m375 -28 c114 -16
303 -57 372 -80 52 -17 26 -13 -120 21 -125 29 -342 61 -489 74 l-106 9 120
-5 c66 -2 166 -11 223 -19z m-1199 -89 c-2 -2 -47 -20 -99 -41 -52 -20 -142
-61 -200 -91 -58 -30 -96 -47 -85 -38 31 24 190 103 285 140 77 30 110 40 99
30z m3266 -25 c-6 -5 -145 -105 -310 -222 -165 -117 -414 -302 -552 -411 -139
-108 -253 -193 -253 -187 0 14 140 151 225 220 l66 54 -35 28 c-42 34 -44 40
-13 54 19 9 29 6 58 -18 38 -32 55 -35 83 -14 19 14 18 15 -7 36 -15 11 -25
24 -22 29 11 17 265 161 275 155 5 -3 10 -1 10 6 0 7 12 26 27 41 23 24 25 31
13 38 -9 5 4 8 36 7 46 -2 49 0 52 24 3 22 -2 29 -25 36 -26 9 -27 10 -8 20
35 19 234 84 298 98 76 17 94 18 82 6z m-2208 -16 c267 -25 459 -63 657 -132
114 -40 278 -115 364 -167 38 -23 65 -33 82 -30 17 4 29 -1 36 -14 10 -16 9
-18 -10 -18 -16 1 -22 -6 -26 -32 -3 -22 -15 -39 -34 -51 l-29 -19 38 -16 c20
-9 39 -16 40 -16 2 0 12 15 23 34 27 45 150 113 170 93 11 -11 2 -23 -54 -72
-66 -59 -73 -80 -15 -51 53 28 44 17 -36 -42 -161 -120 -353 -324 -513 -544
-44 -60 -104 -128 -138 -157 -73 -61 -92 -86 -92 -123 0 -26 -3 -28 -41 -28
-29 0 -46 6 -57 20 -19 24 -79 33 -74 12 1 -8 -2 -11 -8 -7 -13 8 -13 -20 -1
-63 l10 -32 -45 0 c-37 0 -44 -3 -44 -19 0 -11 10 -27 22 -35 36 -25 76 -20
110 14 26 26 37 31 73 28 l43 -3 -112 -129 c-62 -71 -117 -128 -122 -127 -5 1
-13 14 -19 29 -11 29 -24 32 -160 32 -93 1 -119 -4 -138 -22 -14 -15 -47 -25
-47 -15 0 1 -90 342 -200 757 -110 414 -200 757 -200 762 0 5 7 5 17 0 21 -12
61 4 68 29 3 10 -3 38 -15 63 -11 25 -20 56 -20 70 0 21 5 25 38 29 92 9 306
6 459 -8z m-643 -57 c12 -42 392 -1461 437 -1634 12 -48 4 -70 -36 -102 -14
-11 -24 -26 -23 -33 2 -7 -7 -18 -19 -24 -15 -8 -19 -15 -12 -22 7 -7 -11 -12
-58 -17 -106 -11 -143 -26 -195 -78 -43 -42 -48 -52 -49 -95 -3 -106 11 -136
94 -207 115 -97 211 -138 327 -140 70 -1 75 -3 78 -24 5 -30 -19 -37 -57 -17
-27 13 -34 14 -51 2 -18 -13 -18 -14 10 -31 29 -17 39 -39 21 -50 -4 -3 -16 3
-26 14 -14 15 -21 17 -32 9 -20 -17 -16 -31 17 -67 16 -18 42 -58 56 -88 33
-71 80 -104 147 -104 66 0 108 20 131 64 21 39 16 57 -9 36 -13 -11 -15 -7
-15 30 0 33 -6 48 -29 71 -16 16 -37 29 -46 29 -14 0 -16 6 -10 27 4 16 8 30
11 32 6 6 269 -108 267 -116 -1 -5 -4 -20 -8 -34 -6 -25 -2 -27 69 -53 75 -28
76 -28 113 -9 25 12 52 39 81 82 35 54 42 72 42 113 0 70 -22 110 -75 137 -90
45 -162 37 -212 -24 l-28 -33 -75 29 c-41 16 -89 29 -107 29 -23 0 -33 5 -33
15 0 10 -10 15 -26 15 -22 0 -25 4 -21 21 4 16 -3 24 -36 40 -36 18 -42 25
-42 52 0 31 2 32 38 31 51 -2 64 -16 49 -50 -12 -25 -12 -26 18 -19 29 6 30 5
25 -18 -6 -24 -5 -25 92 -38 127 -17 343 -19 343 -2 0 7 -23 14 -55 18 -30 4
-58 12 -61 17 -10 16 18 38 48 38 21 0 31 6 35 20 6 22 33 28 34 8 0 -8 2 -9
5 -2 3 8 27 7 82 -3 42 -7 131 -18 197 -23 l120 -9 101 -106 c98 -102 121
-116 154 -96 11 8 -3 28 -69 100 -97 107 -117 98 169 76 267 -20 581 -42 788
-56 127 -9 172 -16 172 -25 0 -24 -52 -158 -93 -239 -56 -113 -106 -185 -127
-185 -10 0 -23 -7 -30 -15 -15 -18 -51 -20 -68 -3 -9 9 -17 8 -37 -2 -22 -12
-27 -11 -45 5 -19 17 -21 17 -40 0 -17 -16 -23 -17 -45 -5 -20 11 -28 10 -49
-3 -21 -14 -25 -14 -30 -2 -6 17 -52 20 -61 5 -4 -7 -17 -4 -35 7 -24 14 -33
15 -56 5 -20 -10 -30 -10 -40 -1 -8 6 -27 9 -43 6 -15 -3 -33 -1 -39 5 -7 7
-21 6 -45 -3 -30 -11 -37 -10 -52 4 -19 20 -20 20 -47 6 -15 -8 -27 -8 -44 0
-16 7 -32 7 -50 1 -19 -8 -31 -6 -47 5 -19 13 -24 13 -45 -1 -22 -14 -25 -14
-42 1 -15 13 -22 14 -40 5 -17 -9 -25 -8 -39 4 -23 21 -38 20 -50 -1 -9 -17
-10 -17 -29 0 -16 15 -29 17 -65 12 -25 -4 -47 -3 -50 2 -3 5 -58 8 -121 7
-65 -1 -119 2 -122 8 -3 5 -34 6 -72 2 -60 -5 -69 -4 -86 15 -23 25 -48 27
-81 5 -21 -13 -29 -14 -60 -3 -41 15 -70 4 -70 -27 0 -17 8 -19 65 -19 36 0
71 -4 78 -8 7 -5 24 -6 38 -3 13 4 33 2 44 -4 14 -8 25 -7 39 2 15 9 26 9 43
1 13 -6 40 -11 61 -11 21 0 44 -6 52 -12 12 -10 20 -9 40 4 23 15 28 15 56 0
17 -8 41 -13 53 -10 11 3 28 1 36 -4 10 -6 23 -4 38 6 21 14 25 14 42 -1 14
-13 22 -14 44 -4 22 10 29 9 46 -6 17 -15 24 -16 50 -5 22 9 33 10 44 1 14
-12 46 -5 58 13 5 7 13 3 23 -11 16 -23 45 -31 45 -14 0 21 34 20 57 -1 23
-22 25 -22 37 -5 7 9 19 17 26 17 7 0 19 -8 26 -17 12 -17 14 -17 42 -1 26 15
31 16 50 2 17 -12 25 -12 41 -2 16 10 25 9 46 -2 19 -10 28 -11 37 -2 16 16
43 15 58 -2 9 -12 18 -13 38 -5 19 7 33 7 49 -2 16 -9 29 -9 45 -2 16 7 28 7
40 -1 13 -8 23 -8 38 2 17 10 25 10 47 -2 19 -10 35 -11 54 -4 21 7 34 5 53
-7 14 -9 31 -13 38 -9 7 4 -16 -23 -52 -60 -184 -190 -487 -349 -785 -411
-217 -45 -542 -58 -779 -30 -507 60 -1014 278 -1475 635 -146 113 -208 181
-323 355 -215 324 -334 585 -394 865 -28 128 -26 385 3 500 90 356 339 630
758 836 112 54 406 164 442 164 7 0 19 -24 27 -52z m85 -15 l0 -68 -19 65
c-11 36 -19 66 -20 68 0 1 9 2 20 2 18 0 20 -6 19 -67z m3064 -256 c79 -201
127 -337 127 -359 0 -51 45 -200 90 -295 48 -103 99 -180 174 -263 l59 -65
-67 67 -66 68 19 -48 c10 -26 56 -139 100 -251 45 -112 79 -206 76 -210 -4 -3
-77 -6 -163 -6 l-157 0 -7 50 c-11 76 -54 216 -104 339 -104 254 -273 508
-491 736 l-100 104 -54 -55 c-30 -30 -70 -65 -89 -78 -23 -15 -15 -3 27 36 96
90 102 115 47 175 -20 22 -32 44 -27 48 17 16 465 330 472 330 3 0 63 -145
134 -323z m-1263 247 c0 -2 -9 0 -20 6 -11 6 -20 13 -20 16 0 2 9 0 20 -6 11
-6 20 -13 20 -16z m491 -39 c10 -4 19 -13 19 -21 0 -20 -13 -17 -38 9 -16 17
-19 29 -14 47 l7 25 3 -27 c2 -16 11 -30 23 -33z m-3381 32 c0 -1 -41 -36 -91
-77 -162 -132 -313 -324 -428 -540 -58 -109 -68 -114 -15 -7 115 230 270 422
463 576 62 48 71 55 71 48z m2973 -46 c7 -8 -7 -2 -30 14 -24 15 -43 30 -43
32 0 7 61 -31 73 -46z m-2793 -16 c0 -2 -10 -9 -22 -15 -22 -11 -22 -10 -4 4
21 17 26 19 26 11z m7870 -15 c0 -5 -15 -17 -32 -26 l-33 -16 30 26 c34 29 35
29 35 16z m-4763 -36 c12 -31 -153 -164 -204 -164 -11 0 -5 6 17 18 30 15 35
22 34 52 -1 34 3 38 65 72 76 43 80 43 88 22z m4977 -60 c4 -15 21 -48 38 -73
25 -36 27 -42 9 -26 -13 11 -30 33 -38 49 -20 38 -34 88 -23 81 4 -3 11 -17
14 -31z m-5221 -79 c12 -8 17 -15 13 -15 -22 0 -46 35 -44 64 l1 31 4 -32 c3
-19 14 -39 26 -48z m-3532 -39 c-6 -7 -36 -60 -67 -117 -54 -101 -67 -104 -16
-4 28 56 80 135 89 135 3 0 0 -6 -6 -14z m8686 -36 c-90 -33 -132 -57 -202
-113 -44 -36 -47 -37 -20 -8 17 18 54 48 84 68 52 35 170 83 201 82 8 0 -20
-13 -63 -29z m-4771 -15 c-22 -19 -44 -35 -49 -35 -13 0 -9 3 39 40 53 40 58
37 10 -5z m5002 -183 c29 -94 51 -192 68 -312 42 -284 50 -327 89 -505 81
-375 162 -633 262 -845 61 -128 127 -226 158 -234 13 -3 29 -15 35 -26 10 -18
8 -20 -30 -20 -27 0 -47 -7 -60 -20 -25 -25 -25 -41 -2 -70 17 -21 22 -22 85
-13 50 7 71 6 89 -3 31 -18 73 -17 87 0 10 11 9 21 -3 45 l-16 29 51 -34 c69
-46 84 -45 98 10 27 108 -1 189 -83 244 -38 25 -59 32 -98 32 -27 0 -58 -4
-68 -10 -17 -9 -23 1 -60 98 -131 335 -293 879 -334 1122 -20 118 -32 270 -21
270 5 0 95 -46 201 -101 l192 -102 68 -161 c80 -190 286 -651 350 -785 32 -66
42 -97 34 -106 -5 -6 -7 -14 -4 -18 3 -3 -5 -11 -18 -18 -12 -6 -36 -23 -53
-37 l-30 -25 28 7 c15 3 27 4 27 2 0 -2 -50 -35 -111 -72 l-110 -67 44 -46
c25 -25 52 -59 60 -76 9 -16 16 -25 17 -18 0 11 219 143 237 143 19 0 46 39
39 56 -6 15 0 16 48 10 48 -5 54 -4 59 14 8 30 -36 109 -92 164 -45 44 -48 51
-39 76 8 24 -11 78 -148 417 -86 213 -159 394 -162 402 -3 7 21 -3 54 -24 141
-91 221 -85 401 29 82 52 95 57 110 45 68 -53 247 -217 344 -316 510 -520 832
-1071 983 -1685 53 -214 69 -348 63 -508 -7 -196 -46 -316 -131 -408 -94 -102
-153 -122 -359 -122 -150 0 -237 11 -392 51 -265 68 -599 244 -870 459 -154
123 -586 562 -776 790 -234 282 -306 393 -430 665 -187 409 -288 706 -320 943
-10 75 -10 114 0 209 24 217 70 341 164 441 56 59 83 76 167 108 30 11 54 26
53 32 -2 7 0 12 5 12 4 0 26 -62 50 -138z m-5240 -53 c248 -187 454 -454 583
-755 38 -89 99 -267 99 -289 0 -1 -107 -5 -237 -9 -549 -15 -875 -25 -1038
-32 -127 -5 -131 -6 -190 -42 -49 -29 -290 -186 -304 -198 -8 -7 37 -70 60
-81 34 -18 118 -16 170 3 37 13 74 15 229 10 102 -4 473 -13 825 -21 862 -19
1085 -27 1085 -34 0 -4 -6 -15 -13 -24 -11 -17 -80 -18 -1090 -17 l-1077 0
-178 34 c-97 19 -201 43 -229 55 l-53 21 -6 -25 c-3 -14 -12 -25 -19 -25 -7 0
-20 -12 -30 -26 -9 -15 -12 -23 -6 -20 7 4 9 1 5 -8 -3 -8 0 -24 6 -36 12 -22
-1 -50 -23 -50 -6 0 -3 6 7 13 17 13 18 15 1 47 -10 20 -15 44 -11 61 5 29 5
29 -42 29 -43 0 -52 4 -89 43 -46 47 -74 120 -55 139 9 9 12 7 12 -8 0 -16 25
-27 157 -69 185 -59 187 -60 179 -47 -8 13 20 42 40 42 8 0 14 6 14 14 0 8 6
21 13 28 6 7 13 32 14 55 1 36 -1 42 -23 47 -13 4 -24 11 -24 17 0 11 127 169
235 293 320 368 593 636 855 839 47 36 87 66 89 67 2 0 29 -18 59 -41z m-3767
-166 c-12 -20 -14 -14 -5 12 4 9 9 14 11 11 3 -2 0 -13 -6 -23z m4094 -53 c10
-11 16 -20 13 -20 -3 0 -13 9 -23 20 -10 11 -16 20 -13 20 3 0 13 -9 23 -20z
m2203 -290 c23 -1 24 -2 10 -11 -13 -7 -25 -5 -45 6 -16 9 -20 14 -10 11 10
-3 31 -6 45 -6z m-817 -296 c64 -21 140 -35 291 -52 l66 -7 -65 -88 c-59 -80
-67 -88 -91 -83 -15 4 -69 10 -121 16 -51 5 -94 10 -96 12 -1 2 -20 56 -42
121 -31 91 -36 116 -24 111 9 -3 46 -17 82 -30z m-3533 -497 c-3 -28 0 -50 8
-62 8 -10 14 -24 14 -30 0 -15 66 -84 103 -108 23 -15 27 -24 27 -62 0 -30 -8
-58 -23 -83 -13 -20 -27 -45 -30 -56 -10 -25 -36 -17 -166 45 -208 101 -270
213 -179 323 44 53 97 76 182 76 l69 0 -5 -43z m147 4 c4 -24 18 -49 36 -67
22 -21 29 -37 29 -66 0 -31 -4 -38 -19 -38 -11 0 -21 9 -24 23 -4 12 -22 30
-41 41 -38 20 -52 42 -37 60 6 7 4 18 -5 30 -25 35 -18 56 20 56 32 0 35 -3
41 -39z m9206 22 c13 -16 12 -17 -3 -4 -10 7 -18 15 -18 17 0 8 8 3 21 -13z
m59 -79 c18 -26 29 -45 24 -42 -5 4 -25 28 -44 54 -18 26 -29 45 -24 42 5 -4
25 -28 44 -54z m128 -186 c71 -106 181 -288 130 -214 -50 72 -227 346 -223
346 3 0 44 -60 93 -132z m-11113 -78 c9 -16 13 -30 11 -30 -3 0 -12 14 -21 30
-9 17 -13 30 -11 30 3 0 12 -13 21 -30z m4586 -13 c-10 -9 -11 -8 -5 6 3 10 9
15 12 12 3 -3 0 -11 -7 -18z m-4551 -47 c6 -11 8 -20 6 -20 -3 0 -10 9 -16 20
-6 11 -8 20 -6 20 3 0 10 -9 16 -20z m4548 -23 c8 -6 12 -22 9 -36 -3 -15 1
-35 9 -45 8 -11 14 -32 14 -47 0 -15 7 -29 15 -33 8 -3 15 -14 15 -24 0 -10
11 -24 25 -30 14 -7 29 -20 32 -29 8 -21 69 -83 81 -83 5 0 17 -9 27 -20 10
-11 24 -20 31 -20 24 0 24 -18 2 -44 -24 -27 -28 -28 -208 -26 -14 0 -52 1
-85 1 -101 1 -165 5 -171 11 -3 4 -18 3 -32 -2 -15 -4 -58 -3 -97 2 -66 9 -70
8 -87 -14 -9 -13 11 34 45 103 35 69 81 178 102 241 l39 116 111 -5 c60 -3
116 -10 123 -16z m4728 -105 c-8 -8 -12 -1 -20 33 l-6 30 16 -28 c8 -16 13
-31 10 -35z m1969 -2 c9 -16 13 -30 11 -30 -3 0 -12 14 -21 30 -9 17 -13 30
-11 30 3 0 12 -13 21 -30z m-11134 -37 c13 -16 12 -17 -3 -4 -10 7 -18 15 -18
17 0 8 8 3 21 -13z m30 -40 c13 -16 12 -17 -3 -4 -10 7 -18 15 -18 17 0 8 8 3
21 -13z m1569 -48 c-14 -27 -20 -33 -20 -19 0 19 29 69 36 61 2 -2 -5 -21 -16
-42z m-1529 -2 c13 -16 12 -17 -3 -4 -10 7 -18 15 -18 17 0 8 8 3 21 -13z m54
-63 c10 -11 16 -20 13 -20 -3 0 -13 9 -23 20 -10 11 -16 20 -13 20 3 0 13 -9
23 -20z m3635 -257 c-112 -149 -278 -282 -465 -374 -120 -58 -268 -112 -341
-124 -22 -3 20 14 93 39 162 55 290 116 409 195 107 72 232 185 294 269 25 33
47 58 49 56 2 -2 -16 -29 -39 -61z m4961 -180 c13 -16 12 -17 -3 -4 -10 7 -18
15 -18 17 0 8 8 3 21 -13z m44 -53 c10 -11 16 -20 13 -20 -3 0 -13 9 -23 20
-10 11 -16 20 -13 20 3 0 13 -9 23 -20z m61 -72 l29 -33 -32 29 c-18 17 -33
31 -33 33 0 8 8 1 36 -29z m69 -78 c21 -22 37 -40 34 -40 -3 0 -23 18 -44 40
-21 22 -37 40 -34 40 3 0 23 -18 44 -40z m140 -150 c44 -44 77 -80 75 -80 -3
0 -41 36 -85 80 -44 44 -77 80 -75 80 3 0 41 -36 85 -80z m-6128 24 c-3 -3
-12 -4 -19 -1 -8 3 -5 6 6 6 11 1 17 -2 13 -5z m8494 -707 c-43 -87 -51 -98
-95 -137 -20 -17 -13 -5 20 40 27 36 63 95 79 131 17 37 32 63 33 58 2 -5 -15
-46 -37 -92z m-1355 -15 c-5 -4 -86 36 -86 43 0 3 20 -5 45 -17 24 -12 43 -23
41 -26z"/>
<path d="M1671 5706 l-23 -24 49 -6 c26 -4 163 -15 303 -27 140 -11 365 -29
500 -39 448 -36 403 -35 424 -11 19 21 19 21 -2 21 -11 0 -94 7 -184 15 -90 8
-269 24 -398 35 -412 36 -574 50 -611 55 -28 4 -40 0 -58 -19z"/>
</g>
</svg>
